<svg width="14" height="14" viewBox="0 0 14 14" fill="none" xmlns="http://www.w3.org/2000/svg">
<g clip-path="url(#clip0)">
<path d="M13.9815 4.21175C13.9534 4.13706 13.8952 4.07756 13.8212 4.04767L12.5772 3.54578C12.4999 3.14389 12.1946 2.82203 11.8018 2.72056L11.7347 1.94753C11.7249 1.83442 11.649 1.73786 11.5414 1.7016C11.4338 1.66536 11.3149 1.6963 11.2387 1.78041L10.9194 2.13258L10.722 1.44195C10.688 1.3229 10.5812 1.23933 10.4574 1.23505C10.3329 1.23064 10.2212 1.30669 10.179 1.42314L8.70458 5.4907C8.70458 5.4907 3.24308 5.74564 3.24079 5.74577C2.12087 5.81307 1.05987 5.21383 0.538488 4.21898C0.465225 4.07931 0.292648 4.02537 0.153006 4.0986C0.0133016 4.17183 -0.0405751 4.34441 0.0326248 4.48408C0.498731 5.37346 1.32427 5.99916 2.27085 6.22698C2.17259 6.34149 1.96146 6.62531 1.838 7.07152C1.70375 7.5567 1.65537 8.33014 2.14898 9.31223L1.34838 10.3997C1.30161 10.4632 1.28321 10.5432 1.29752 10.6208L1.64988 12.5314C1.67485 12.6669 1.79298 12.7652 1.93071 12.7652H2.28964C2.37432 12.7652 2.45463 12.7276 2.50892 12.6626C2.56318 12.5976 2.58577 12.5118 2.5706 12.4285L2.34748 11.2029L4.70819 9.43071C4.71234 9.42756 4.70419 9.4341 4.70819 9.43071C4.93391 9.24112 5.09776 9.03231 5.21497 8.81763C6.44534 9.03364 8.12913 9.32594 9.20835 9.49975L9.68384 12.524C9.70571 12.6629 9.82536 12.7652 9.96595 12.7652H10.2613C10.419 12.7652 10.5469 12.6374 10.5469 12.4797V9.4097C10.8149 9.22662 10.9108 8.92043 10.9743 8.62056C10.9763 8.61113 11.6096 5.68825 11.6096 5.68825C11.729 5.70814 11.8495 5.71858 11.9709 5.71858C12.8072 5.71858 13.573 5.22896 13.9695 4.4408C14.0053 4.36954 14.0097 4.28647 13.9815 4.21175Z" fill="white"/>
</g>
<defs>
<clipPath id="clip0">
<rect width="14" height="14" fill="white"/>
</clipPath>
</defs>
</svg>
